<svg width="84" height="28" viewBox="0 0 84 28" fill="none" 
  xmlns="http://www.w3.org/2000/svg">
  <g clip-path="url(#clip0)">
    <path d="M77.1124 -0.000153141H6.69234C6.43565 -0.000153141 6.18204 -0.000153141 5.92603 0.00124686C5.71173 0.00264686 5.49913 0.00671386 5.28277 0.0101369C4.81273 0.0156681 4.34379 0.0570202 3.88004 0.133834C3.41693 0.21232 2.96834 0.360288 2.54942 0.572734C2.13102 0.786977 1.74871 1.06536 1.41637 1.3978C1.08228 1.72929 0.803791 2.11246 0.591611 2.53256C0.378847 2.95182 0.231315 3.4011 0.154111 3.86488C0.0761741 4.32808 0.0342353 4.79661 0.0286714 5.26628C0.0221754 5.4809 0.0214894 5.69624 0.0180664 5.91088V22.0909C0.0214894 22.3082 0.0221754 22.5188 0.0286714 22.7362C0.034237 23.2058 0.0761758 23.6744 0.154111 24.1375C0.231102 24.6016 0.378642 25.0511 0.591611 25.4705C0.803694 25.8893 1.08222 26.2709 1.41637 26.6005C1.74745 26.9345 2.13 27.213 2.54942 27.4256C2.96833 27.6387 3.41688 27.7875 3.88004 27.8672C4.34387 27.9434 4.81276 27.9848 5.28277 27.991C5.49913 27.9957 5.71173 27.9984 5.92603 27.9984C6.18204 27.9998 6.43567 27.9998 6.69234 27.9998H77.1124C77.364 27.9998 77.6196 27.9998 77.8712 27.9984C78.0845 27.9984 78.3032 27.9957 78.5165 27.991C78.9857 27.9851 79.4537 27.9437 79.9165 27.8672C80.3812 27.7869 80.8313 27.6381 81.2523 27.4256C81.6713 27.2129 82.0535 26.9343 82.3843 26.6005C82.7176 26.2696 82.9967 25.8883 83.2114 25.4705C83.4228 25.0508 83.5689 24.6013 83.6448 24.1375C83.7229 23.6743 83.7663 23.2059 83.7747 22.7362C83.7775 22.5188 83.7775 22.3082 83.7775 22.0909C83.7829 21.8366 83.7829 21.5836 83.7829 21.3252V6.67514C83.7829 6.41879 83.7829 6.16449 83.7775 5.91088C83.7775 5.69624 83.7775 5.4809 83.7747 5.26625C83.7663 4.79654 83.7229 4.32811 83.6448 3.86485C83.5687 3.40134 83.4226 2.9521 83.2114 2.53253C82.7793 1.69048 82.0942 1.00506 81.2523 0.572671C80.8313 0.360744 80.3811 0.212815 79.9165 0.133771C79.4537 0.0566188 78.9857 0.0152523 78.5165 0.0100389C78.3032 0.00662286 78.0845 0.00252086 77.8712 0.00115586C77.6196 -0.000244141 77.364 -0.000244141 77.1124 -0.000244141V-0.000153141Z" fill="black"/>
    <path d="M5.92942 27.3873C5.71615 27.3873 5.50802 27.3846 5.29642 27.3798C4.85807 27.3741 4.42074 27.3359 3.98802 27.2656C3.58454 27.1962 3.19367 27.0669 2.82831 26.8821C2.46629 26.6989 2.13611 26.4586 1.85041 26.1705C1.56056 25.8858 1.31926 25.5556 1.13605 25.1929C0.950821 24.828 0.822632 24.4367 0.755948 24.0329C0.683935 23.599 0.644973 23.1602 0.639398 22.7204C0.63496 22.5728 0.62915 22.0812 0.62915 22.0812V5.91084C0.62915 5.91084 0.635338 5.42686 0.639433 5.28466C0.644771 4.84554 0.683507 4.40746 0.755304 3.97422C0.822112 3.56928 0.950399 3.17693 1.13573 2.81075C1.31826 2.44837 1.55823 2.11791 1.84632 1.83218C2.1341 1.54374 2.46534 1.30223 2.82796 1.11645C3.19248 0.93227 3.58262 0.803917 3.98529 0.735694C4.41942 0.66469 4.85827 0.626302 5.29814 0.620852L5.92977 0.612305H77.8677L78.5069 0.621195C78.9428 0.626374 79.3777 0.66442 79.8078 0.735008C80.2145 0.804087 80.6087 0.933336 80.9774 1.1185C81.7039 1.49289 82.295 2.08522 82.6679 2.81245C82.8503 3.17611 82.9766 3.56526 83.0426 3.9667C83.1152 4.4035 83.1559 4.84502 83.1642 5.28774C83.1663 5.48598 83.1663 5.69892 83.1663 5.91084C83.1718 6.17334 83.1718 6.42319 83.1718 6.6751V21.3252C83.1718 21.5795 83.1718 21.8276 83.1663 22.0778C83.1663 22.3054 83.1663 22.514 83.1635 22.7286C83.1554 23.1634 83.1154 23.5971 83.0439 24.026C82.9786 24.4328 82.8511 24.8271 82.6659 25.195C82.4814 25.5537 82.2415 25.8811 81.955 26.165C81.669 26.4547 81.3383 26.6964 80.9754 26.8808C80.6077 27.067 80.2141 27.1967 79.8078 27.2656C79.3751 27.3363 78.9377 27.3745 78.4994 27.3798C78.2943 27.3846 78.0796 27.3873 77.8712 27.3873L77.1124 27.3887L5.92942 27.3873Z" fill="white"/>
    <path d="M17.5157 13.9225C17.5236 13.3149 17.685 12.7192 17.9849 12.1908C18.2848 11.6623 18.7135 11.2183 19.2311 10.9001C18.9023 10.4305 18.4685 10.044 17.9642 9.77133C17.4599 9.49869 16.8989 9.34739 16.3259 9.32946C15.1035 9.20115 13.9185 10.0609 13.2956 10.0609C12.6606 10.0609 11.7016 9.3422 10.6688 9.36345C10.0008 9.38503 9.34983 9.57928 8.77922 9.92727C8.20862 10.2753 7.73789 10.7651 7.41289 11.3491C6.00511 13.7865 7.05519 17.3687 8.40375 19.3389C9.07846 20.3037 9.86701 21.3814 10.8988 21.3431C11.9085 21.3013 12.2856 20.6993 13.5044 20.6993C14.7118 20.6993 15.0656 21.3431 16.1183 21.3188C17.2018 21.3013 17.8844 20.3498 18.5354 19.3759C19.0202 18.6885 19.3933 17.9287 19.6407 17.1248C19.0113 16.8586 18.4741 16.4129 18.0963 15.8435C17.7184 15.274 17.5165 14.6059 17.5157 13.9225Z" fill="black"/>
    <path d="M15.5273 8.0336C16.118 7.32445 16.4091 6.41295 16.3386 5.49268C15.4361 5.58747 14.6024 6.01881 14.0037 6.70075C13.711 7.0339 13.4868 7.42147 13.3439 7.84132C13.2011 8.26117 13.1424 8.70505 13.1712 9.1476C13.6226 9.15225 14.0692 9.0544 14.4773 8.86144C14.8854 8.66848 15.2444 8.38542 15.5273 8.0336V8.0336Z" fill="black"/>
    <path d="M29.6292 18.9976H26.3158L25.5201 21.3471H24.1167L27.2551 12.6545H28.7132L31.8516 21.3471H30.4242L29.6292 18.9976ZM26.659 17.9134H29.2854L27.9907 14.1004H27.9544L26.659 17.9134Z" fill="black"/>
    <path d="M38.6295 18.1785C38.6295 20.148 37.5754 21.4133 35.9847 21.4133C35.5817 21.4344 35.181 21.3415 34.8283 21.1454C34.4757 20.9493 34.1854 20.6579 33.9906 20.3045H33.9605V23.4435H32.6597V15.0094H33.9188V16.0635H33.9428C34.1464 15.7118 34.4417 15.4218 34.797 15.2245C35.1523 15.0272 35.5545 14.93 35.9607 14.9431C37.5693 14.9431 38.6295 16.2145 38.6295 18.1785ZM37.2924 18.1785C37.2924 16.8954 36.6293 16.0519 35.6176 16.0519C34.6236 16.0519 33.9551 16.9132 33.9551 18.1785C33.9551 19.4555 34.6236 20.3106 35.6176 20.3106C36.6293 20.3106 37.2924 19.4732 37.2924 18.1785H37.2924Z" fill="black"/>
    <path d="M45.6052 18.1785C45.6052 20.148 44.5507 21.4133 42.96 21.4133C42.5571 21.4344 42.1563 21.3415 41.8037 21.1454C41.451 20.9493 41.1607 20.6579 40.966 20.3045H40.9359V23.4435H39.635V15.0094H40.8942V16.0635H40.9181C41.1218 15.7118 41.417 15.4218 41.7723 15.2245C42.1277 15.0272 42.5299 14.93 42.9361 14.9431C44.5446 14.9431 45.6052 16.2145 45.6052 18.1785ZM44.2677 18.1785C44.2677 16.8954 43.6047 16.0519 42.5929 16.0519C41.599 16.0519 40.9304 16.9132 40.9304 18.1785C40.9304 19.4555 41.599 20.3106 42.5929 20.3106C43.6047 20.3106 44.2677 19.4732 44.2677 18.1785V18.1785Z" fill="black"/>
    <path d="M50.2145 18.9251C50.3109 19.7871 51.1483 20.3531 52.2926 20.3531C53.3891 20.3531 54.178 19.7871 54.178 19.0098C54.178 18.3351 53.7022 17.9311 52.5756 17.6543L51.4491 17.3829C49.8529 16.9973 49.1119 16.2508 49.1119 15.0395C49.1119 13.5397 50.4189 12.5095 52.2742 12.5095C54.1117 12.5095 55.3708 13.5397 55.4132 15.0395H54.1C54.0214 14.172 53.3043 13.6484 52.2564 13.6484C51.2084 13.6484 50.4913 14.1782 50.4913 14.9493C50.4913 15.5638 50.9493 15.9254 52.0698 16.2023L53.0275 16.4374C54.811 16.8592 55.5513 17.5756 55.5513 18.8471C55.5513 20.4734 54.2566 21.4919 52.1962 21.4919C50.2685 21.4919 48.9669 20.4973 48.8828 18.925L50.2145 18.9251Z" fill="black"/>
    <path d="M58.3603 13.5098V15.0096H59.5655V16.0397H58.3603V19.5336C58.3603 20.0764 58.6017 20.3293 59.1314 20.3293C59.2745 20.3268 59.4174 20.3168 59.5594 20.2992V21.3232C59.3212 21.3677 59.0791 21.3879 58.8368 21.3834C57.5537 21.3834 57.0533 20.9014 57.0533 19.6723V16.0397H56.1318V15.0096H57.0533V13.5098H58.3603Z" fill="black"/>
    <path d="M60.2627 18.1787C60.2627 16.1847 61.4371 14.9316 63.2685 14.9316C65.106 14.9316 66.2749 16.1846 66.2749 18.1787C66.2749 20.1782 65.1121 21.4258 63.2685 21.4258C61.4255 21.4258 60.2627 20.1782 60.2627 18.1787ZM64.9494 18.1787C64.9494 16.8108 64.3226 16.0035 63.2685 16.0035C62.2143 16.0035 61.5875 16.817 61.5875 18.1787C61.5875 19.552 62.2143 20.3532 63.2685 20.3532C64.3226 20.3532 64.9494 19.552 64.9494 18.1787H64.9494Z" fill="black"/>
    <path d="M67.3474 15.0096H68.5881V16.0883H68.6182C68.7022 15.7514 68.8996 15.4536 69.1772 15.2451C69.4548 15.0366 69.7957 14.93 70.1427 14.9432C70.2926 14.9427 70.4421 14.959 70.5884 14.9918V16.2086C70.3991 16.1507 70.2017 16.1242 70.0039 16.13C69.8149 16.1223 69.6265 16.1556 69.4516 16.2276C69.2767 16.2997 69.1195 16.4087 68.9907 16.5472C68.8619 16.6857 68.7646 16.8505 68.7055 17.0301C68.6464 17.2098 68.6269 17.4001 68.6483 17.5881V21.3472H67.3474L67.3474 15.0096Z" fill="black"/>
    <path d="M76.5863 19.4857C76.4113 20.6362 75.2909 21.4258 73.8574 21.4258C72.0137 21.4258 70.8694 20.1905 70.8694 18.2088C70.8694 16.2209 72.0199 14.9316 73.8027 14.9316C75.5561 14.9316 76.6587 16.1361 76.6587 18.0577V18.5034H72.1826V18.582C72.1619 18.8153 72.1911 19.0502 72.2682 19.2713C72.3454 19.4924 72.4686 19.6946 72.6299 19.8643C72.7911 20.0341 72.9867 20.1677 73.2035 20.2561C73.4203 20.3445 73.6535 20.3858 73.8875 20.3771C74.1949 20.4059 74.5034 20.3347 74.7671 20.1741C75.0308 20.0135 75.2356 19.7721 75.351 19.4857L76.5863 19.4857ZM72.1887 17.5942H75.3572C75.3688 17.3845 75.3371 17.1747 75.2638 16.9778C75.1905 16.781 75.0773 16.6014 74.9314 16.4503C74.7854 16.2993 74.6098 16.1801 74.4156 16.1001C74.2213 16.0202 74.0127 15.9812 73.8027 15.9857C73.5908 15.9845 73.3808 16.0252 73.1848 16.1055C72.9888 16.1858 72.8106 16.3042 72.6606 16.4537C72.5105 16.6033 72.3916 16.781 72.3106 16.9768C72.2296 17.1725 72.1882 17.3824 72.1887 17.5942V17.5942Z" fill="black"/>
    <path d="M26.4965 6.11167C26.7692 6.0921 27.0429 6.1333 27.2978 6.23231C27.5526 6.33131 27.7824 6.48565 27.9704 6.68418C28.1584 6.88272 28.3 7.12051 28.385 7.3804C28.47 7.64029 28.4962 7.9158 28.4618 8.18706C28.4618 9.52144 27.7406 10.2885 26.4965 10.2885H24.9878V6.11167H26.4965ZM25.6365 9.69777H26.424C26.6189 9.70942 26.8139 9.67747 26.9949 9.60424C27.1759 9.53101 27.3383 9.41835 27.4702 9.27445C27.6021 9.13055 27.7003 8.95905 27.7576 8.77241C27.815 8.58578 27.8299 8.38872 27.8015 8.19557C27.8279 8.00319 27.8114 7.80735 27.7532 7.62209C27.695 7.43682 27.5966 7.26672 27.4649 7.12397C27.3333 6.98122 27.1717 6.86935 26.9917 6.79638C26.8118 6.72342 26.6179 6.69116 26.424 6.70192H25.6365V9.69777Z" fill="black"/>
    <path d="M29.1945 8.7109C29.1747 8.50376 29.1984 8.29476 29.2641 8.09732C29.3298 7.89987 29.436 7.71833 29.576 7.56434C29.7159 7.41035 29.8865 7.28732 30.0768 7.20312C30.2671 7.11893 30.4729 7.07544 30.681 7.07544C30.8891 7.07544 31.0949 7.11893 31.2852 7.20312C31.4755 7.28732 31.6461 7.41035 31.786 7.56434C31.926 7.71833 32.0322 7.89987 32.0979 8.09732C32.1636 8.29476 32.1873 8.50376 32.1675 8.7109C32.1877 8.91826 32.1643 9.12755 32.0987 9.32531C32.0332 9.52308 31.9271 9.70495 31.7871 9.85924C31.6471 10.0135 31.4763 10.1368 31.2859 10.2212C31.0954 10.3056 30.8893 10.3492 30.681 10.3492C30.4727 10.3492 30.2666 10.3056 30.0762 10.2212C29.8857 10.1368 29.7149 10.0135 29.5749 9.85924C29.4349 9.70495 29.3288 9.52308 29.2633 9.32531C29.1978 9.12755 29.1743 8.91826 29.1945 8.7109V8.7109ZM31.5276 8.7109C31.5276 8.02765 31.2207 7.6281 30.682 7.6281C30.1413 7.6281 29.8371 8.02766 29.8371 8.71091C29.8371 9.39963 30.1413 9.79611 30.682 9.79611C31.2207 9.79611 31.5276 9.39689 31.5276 8.7109H31.5276Z" fill="black"/>
    <path d="M36.1194 10.2883H35.4741L34.8227 7.96679H34.7734L34.1247 10.2883H33.4855L32.6167 7.13623H33.2477L33.8123 9.54143H33.8588L34.5068 7.13623H35.1036L35.7517 9.54143H35.8009L36.3628 7.13623H36.9849L36.1194 10.2883Z" fill="black"/>
    <path d="M37.7156 7.13621H38.3144V7.63694H38.3609C38.4397 7.4571 38.5728 7.30634 38.7414 7.20567C38.91 7.10501 39.1058 7.05946 39.3015 7.07537C39.4549 7.06384 39.6089 7.08696 39.7521 7.14303C39.8953 7.1991 40.0241 7.28667 40.1289 7.39926C40.2336 7.51185 40.3117 7.64657 40.3574 7.79345C40.403 7.94032 40.415 8.09558 40.3925 8.24773V10.2882H39.7705V8.40394C39.7705 7.8974 39.5503 7.64549 39.0903 7.64549C38.9862 7.64064 38.8822 7.65836 38.7856 7.69744C38.6889 7.73653 38.6019 7.79604 38.5304 7.87191C38.4589 7.94778 38.4047 8.03821 38.3714 8.137C38.3381 8.23579 38.3266 8.34061 38.3376 8.44427V10.2883H37.7156L37.7156 7.13621Z" fill="black"/>
    <path d="M41.3838 5.90576H42.0059V10.2883H41.3838V5.90576Z" fill="black"/>
    <path d="M42.8705 8.71096C42.8507 8.50381 42.8744 8.2948 42.9402 8.09734C43.0059 7.89988 43.1121 7.71834 43.2521 7.56435C43.3921 7.41036 43.5627 7.28732 43.753 7.20313C43.9433 7.11893 44.1491 7.07544 44.3572 7.07544C44.5653 7.07544 44.7711 7.11893 44.9614 7.20313C45.1517 7.28732 45.3223 7.41036 45.4623 7.56435C45.6023 7.71834 45.7085 7.89988 45.7742 8.09734C45.8399 8.2948 45.8636 8.50381 45.8438 8.71096C45.864 8.91833 45.8406 9.12762 45.775 9.32538C45.7095 9.52315 45.6033 9.70502 45.4633 9.8593C45.3233 10.0136 45.1526 10.1369 44.9621 10.2212C44.7716 10.3056 44.5655 10.3492 44.3572 10.3492C44.1488 10.3492 43.9428 10.3056 43.7523 10.2212C43.5618 10.1369 43.3911 10.0136 43.2511 9.8593C43.1111 9.70502 43.0049 9.52315 42.9393 9.32538C42.8738 9.12762 42.8504 8.91833 42.8705 8.71096V8.71096ZM45.2036 8.71096C45.2036 8.02771 44.8967 7.62815 44.358 7.62815C43.8173 7.62815 43.5131 8.02771 43.5131 8.71097C43.5131 9.39969 43.8173 9.79617 44.358 9.79617C44.8967 9.79617 45.2036 9.39695 45.2036 8.71096H45.2036Z" fill="black"/>
    <path d="M46.4988 9.39692C46.4988 8.82953 46.9212 8.50244 47.6711 8.45595L48.525 8.40674V8.13467C48.525 7.80175 48.3048 7.61377 47.8796 7.61377C47.5324 7.61377 47.2918 7.74126 47.2227 7.96411H46.6205C46.684 7.4227 47.1933 7.07544 47.9083 7.07544C48.6986 7.07544 49.1443 7.46884 49.1443 8.13467V10.2883H48.5455V9.84536H48.4962C48.3963 10.0043 48.2561 10.1338 48.0897 10.2207C47.9234 10.3077 47.737 10.3489 47.5495 10.3403C47.4171 10.354 47.2834 10.3399 47.1569 10.2988C47.0303 10.2577 46.9138 10.1906 46.8148 10.1017C46.7158 10.0128 46.6366 9.90419 46.5821 9.7828C46.5277 9.66141 46.4993 9.52996 46.4988 9.39692V9.39692ZM48.525 9.12758V8.86406L47.7552 8.91328C47.3211 8.94233 47.1243 9.08998 47.1243 9.36786C47.1243 9.65155 47.3704 9.81664 47.7088 9.81664C47.8079 9.82668 47.9081 9.81667 48.0033 9.7872C48.0985 9.75774 48.1868 9.70943 48.2629 9.64514C48.3391 9.58085 48.4015 9.5019 48.4465 9.41298C48.4915 9.32407 48.5182 9.22701 48.525 9.12758V9.12758Z" fill="black"/>
    <path d="M49.9619 8.7109C49.9619 7.7149 50.4739 7.08395 51.2703 7.08395C51.4673 7.07487 51.6628 7.12205 51.834 7.21998C52.0051 7.3179 52.1449 7.46253 52.2369 7.63695H52.2834V5.90576H52.9055V10.2883H52.3094V9.79028H52.2602C52.161 9.96352 52.0164 10.1063 51.8419 10.2033C51.6675 10.3002 51.4698 10.3476 51.2703 10.3402C50.4685 10.3403 49.9619 9.70929 49.9619 8.7109ZM50.6045 8.7109C50.6045 9.37945 50.9197 9.78175 51.4467 9.78175C51.971 9.78175 52.295 9.37365 52.295 8.71364C52.295 8.0567 51.9676 7.64278 51.4467 7.64278C50.9231 7.64278 50.6045 8.04781 50.6045 8.7109H50.6045Z" fill="black"/>
    <path d="M55.4792 8.7109C55.4594 8.50376 55.4831 8.29476 55.5488 8.09732C55.6145 7.89987 55.7207 7.71833 55.8606 7.56434C56.0006 7.41035 56.1712 7.28732 56.3615 7.20312C56.5518 7.11893 56.7576 7.07544 56.9657 7.07544C57.1738 7.07544 57.3796 7.11893 57.5698 7.20312C57.7601 7.28732 57.9307 7.41035 58.0707 7.56434C58.2107 7.71833 58.3169 7.89987 58.3826 8.09732C58.4483 8.29476 58.472 8.50376 58.4521 8.7109C58.4723 8.91826 58.4489 9.12755 58.3834 9.32531C58.3179 9.52308 58.2117 9.70495 58.0717 9.85924C57.9317 10.0135 57.761 10.1368 57.5705 10.2212C57.38 10.3056 57.174 10.3492 56.9657 10.3492C56.7573 10.3492 56.5513 10.3056 56.3608 10.2212C56.1703 10.1368 55.9996 10.0135 55.8596 9.85924C55.7196 9.70495 55.6134 9.52308 55.5479 9.32531C55.4824 9.12755 55.459 8.91826 55.4792 8.7109V8.7109ZM57.8123 8.7109C57.8123 8.02765 57.5054 7.6281 56.9667 7.6281C56.426 7.6281 56.1218 8.02766 56.1218 8.71091C56.1218 9.39963 56.426 9.79611 56.9667 9.79611C57.5054 9.79611 57.8123 9.39689 57.8123 8.7109Z" fill="black"/>
    <path d="M59.2869 7.13621H59.8857V7.63694H59.9322C60.011 7.4571 60.144 7.30634 60.3127 7.20567C60.4813 7.10501 60.6771 7.05946 60.8728 7.07537C61.0262 7.06384 61.1802 7.08696 61.3234 7.14303C61.4666 7.1991 61.5954 7.28667 61.7002 7.39926C61.8049 7.51185 61.883 7.64657 61.9287 7.79345C61.9743 7.94032 61.9863 8.09558 61.9638 8.24773V10.2882H61.3418V8.40394C61.3418 7.8974 61.1216 7.64549 60.6616 7.64549C60.5574 7.64064 60.4535 7.65836 60.3569 7.69744C60.2602 7.73653 60.1732 7.79604 60.1017 7.87191C60.0302 7.94778 59.976 8.03821 59.9427 8.137C59.9094 8.23579 59.8979 8.34061 59.9089 8.44427V10.2883H59.2869V7.13621Z" fill="black"/>
    <path d="M65.4789 6.35156V7.15068H66.1618V7.67466H65.4789V9.29546C65.4789 9.62564 65.6149 9.77021 65.9246 9.77021C66.0038 9.76996 66.083 9.76517 66.1618 9.75586V10.274C66.0501 10.294 65.9369 10.3046 65.8234 10.3058C65.1316 10.3058 64.8561 10.0624 64.8561 9.45473V7.67463H64.3557V7.15065H64.8561V6.35156H65.4789Z" fill="black"/>
    <path d="M67.0115 5.90576H67.6281V7.64278H67.6773C67.76 7.46125 67.8966 7.30964 68.0686 7.2086C68.2406 7.10755 68.4396 7.06199 68.6384 7.07813C68.791 7.06983 68.9435 7.0953 69.0851 7.15273C69.2267 7.21016 69.3539 7.29813 69.4575 7.41036C69.5612 7.5226 69.6389 7.65634 69.6849 7.80203C69.731 7.94773 69.7443 8.10179 69.7239 8.25323V10.2883H69.1012V8.40669C69.1012 7.90322 68.8667 7.64824 68.4272 7.64824C68.3203 7.63947 68.2128 7.65417 68.1121 7.6913C68.0115 7.72844 67.9202 7.78712 67.8446 7.86324C67.769 7.93935 67.7109 8.03107 67.6745 8.13196C67.638 8.23286 67.6241 8.3405 67.6336 8.44736V10.2883H67.0115L67.0115 5.90576Z" fill="black"/>
    <path d="M73.3509 9.43731C73.2664 9.72538 73.0833 9.97457 72.8336 10.1413C72.5839 10.308 72.2836 10.3816 71.9851 10.3492C71.7775 10.3547 71.5711 10.3149 71.3803 10.2327C71.1896 10.1504 71.019 10.0276 70.8805 9.87279C70.7419 9.718 70.6388 9.53491 70.5781 9.33623C70.5174 9.13756 70.5007 8.92806 70.5291 8.72227C70.5014 8.51585 70.5184 8.3059 70.579 8.10663C70.6395 7.90736 70.7422 7.72342 70.88 7.56727C71.0178 7.41112 71.1875 7.2864 71.3777 7.20155C71.5679 7.11671 71.7741 7.07372 71.9824 7.07549C72.8594 7.07549 73.3885 7.67469 73.3885 8.66449V8.88155H71.1628V8.91641C71.153 9.03209 71.1676 9.14852 71.2054 9.25824C71.2433 9.36797 71.3037 9.46856 71.3828 9.55358C71.4618 9.6386 71.5577 9.70617 71.6644 9.75194C71.7711 9.79772 71.8861 9.8207 72.0022 9.81941C72.151 9.83728 72.3018 9.81048 72.4353 9.74244C72.5688 9.67439 72.6791 9.56817 72.7521 9.43728L73.3509 9.43731ZM71.1627 8.42149H72.7548C72.7627 8.3157 72.7483 8.20944 72.7126 8.10954C72.677 8.00963 72.6208 7.9183 72.5477 7.8414C72.4746 7.7645 72.3863 7.70373 72.2883 7.66301C72.1904 7.62229 72.085 7.60251 71.9789 7.60494C71.8714 7.60359 71.7646 7.62379 71.6649 7.66435C71.5653 7.70491 71.4747 7.76501 71.3987 7.84111C71.3226 7.91721 71.2625 8.00777 71.222 8.10744C71.1815 8.20712 71.1614 8.3139 71.1628 8.42149H71.1627Z" fill="black"/>
  </g>
  <defs>
    <clipPath id="clip0">
      <rect x="0.0180664" width="83.76" height="28" fill="white"/>
    </clipPath>
  </defs>
</svg>
