<svg width="93" height="28" viewBox="0 0 93 28" fill="none" 
  xmlns="http://www.w3.org/2000/svg">
  <path d="M89.4267 28H3.51824C2.59248 27.992 1.7069 27.6206 1.05226 26.966C0.397622 26.3114 0.0262977 25.4258 0.0182676 24.5V3.50018C0.0132986 3.03917 0.100435 2.58182 0.274566 2.15494C0.448696 1.72806 0.706315 1.34024 1.03231 1.01425C1.35831 0.688249 1.74612 0.43063 2.173 0.256499C2.59988 0.0823685 3.05724 -0.00476776 3.51824 0.000201148H89.4267C89.8796 0.00627673 90.3269 0.101728 90.7428 0.281077C91.1588 0.460426 91.5352 0.720144 91.8506 1.04533C92.1659 1.37051 92.4139 1.75476 92.5804 2.17602C92.7468 2.59729 92.8285 3.04728 92.8206 3.50018V24.5C92.8181 25.4093 92.463 26.2822 91.83 26.9349C91.197 27.5877 90.3355 27.9695 89.4267 28V28Z" fill="white"/>
  <path d="M32.6274 7.09552C32.6395 7.34955 32.5986 7.60333 32.5073 7.8407C32.416 8.07807 32.2763 8.29385 32.0971 8.47429C31.9323 8.71326 31.7098 8.90665 31.4502 9.03646C31.1905 9.16627 30.9023 9.22828 30.6123 9.21671C30.3321 9.23529 30.0515 9.18731 29.7935 9.07672C29.5354 8.96612 29.3072 8.79603 29.1274 8.58035C28.9184 8.37267 28.754 8.12437 28.6446 7.85076C28.5352 7.57715 28.4829 7.28403 28.4911 6.98946C28.4829 6.69488 28.5352 6.40176 28.6446 6.12815C28.754 5.85454 28.9184 5.60625 29.1274 5.39856C29.3072 5.18288 29.5354 5.0128 29.7935 4.9022C30.0515 4.7916 30.3321 4.74363 30.6123 4.7622C30.9054 4.78241 31.1926 4.85422 31.4607 4.97432C31.6958 5.07783 31.9111 5.22138 32.0971 5.39856L31.7789 5.8228C31.4739 5.5009 31.0553 5.31065 30.6123 5.2925C30.3993 5.28141 30.1863 5.31325 29.9858 5.38613C29.7854 5.45901 29.6017 5.57144 29.4456 5.71674C29.2918 5.8887 29.1748 6.09033 29.1018 6.30921C29.0289 6.5281 29.0015 6.75959 29.0214 6.98946C29.0012 7.2032 29.0288 7.41876 29.1022 7.62053C29.1756 7.8223 29.2929 8.00524 29.4456 8.15611C29.7726 8.43006 30.1856 8.58019 30.6123 8.58019C31.0389 8.58019 31.4519 8.43006 31.7789 8.15611C31.9914 7.92553 32.1056 7.62111 32.0971 7.30764H30.6123V6.77734H32.6274V7.09552Z" fill="black"/>
  <path d="M35.7564 5.39846H33.9534V6.67118H35.6504V7.20148H33.9534V8.58026H35.7564V9.11056H33.4231V4.86816H35.7564V5.39846Z" fill="black"/>
  <path d="M38.0261 9.11056H37.4958V5.39846H36.3291V4.86816H39.1927V5.39846H38.0261V9.11056Z" fill="black"/>
  <path d="M41.2607 9.11056V4.86816H41.791V9.11056H41.2607Z" fill="black"/>
  <path d="M44.1457 9.11056H43.6154V5.39846H42.4487V4.86816H45.3123V5.39846H44.1457V9.11056Z" fill="black"/>
  <path d="M50.6682 8.58013C50.4606 8.78919 50.2123 8.9535 49.9387 9.06295C49.665 9.17239 49.3719 9.22465 49.0773 9.21649C48.8 9.21405 48.526 9.15653 48.2711 9.04729C48.0162 8.93805 47.7855 8.77926 47.5925 8.58013C47.3834 8.37244 47.2191 8.12415 47.1097 7.85054C47.0002 7.57693 46.948 7.28381 46.9561 6.98923C46.948 6.69466 47.0002 6.40154 47.1097 6.12793C47.2191 5.85432 47.3834 5.60602 47.5925 5.39834C47.7855 5.19921 48.0162 5.04042 48.2711 4.93118C48.526 4.82193 48.8 4.76442 49.0773 4.76198C49.3562 4.75421 49.6333 4.80709 49.8897 4.91696C50.1461 5.02683 50.3755 5.19108 50.5622 5.39834C50.7712 5.60602 50.9356 5.85432 51.045 6.12793C51.1544 6.40154 51.2067 6.69466 51.1985 6.98923C51.202 7.56349 51.0155 8.12279 50.6682 8.58013V8.58013ZM48.0167 8.15589C48.1676 8.30863 48.3506 8.42593 48.5523 8.4993C48.7541 8.57267 48.9697 8.60028 49.1834 8.58013C49.3964 8.59122 49.6094 8.55938 49.8098 8.4865C50.0102 8.41362 50.194 8.30119 50.3501 8.15589C50.5662 7.80572 50.6767 7.40064 50.6682 6.98923C50.6909 6.52688 50.5395 6.07282 50.244 5.71652C50.0879 5.57122 49.9042 5.45879 49.7038 5.38591C49.5033 5.31303 49.2903 5.28119 49.0773 5.29228C48.8804 5.28197 48.6835 5.31457 48.5004 5.38782C48.3173 5.46107 48.1523 5.57322 48.0167 5.71652C47.8471 5.88192 47.7126 6.07994 47.6215 6.29866C47.5304 6.51739 47.4844 6.75229 47.4864 6.98923C47.4845 7.21058 47.531 7.42967 47.6226 7.63119C47.7142 7.8327 47.8487 8.01178 48.0167 8.15589V8.15589Z" fill="black"/>
  <path d="M52.0046 9.11056V4.86816H52.641L54.6561 8.15602V7.30754V4.86816H55.1864V9.11056H54.5501L52.5349 5.61058H52.4289L52.5349 6.45906V9.11056H52.0046Z" fill="black"/>
  <path d="M46.8967 15.1667C46.1091 15.1667 45.3537 15.4795 44.7968 16.0365C44.2399 16.5934 43.927 17.3487 43.927 18.1363C43.9174 18.5289 43.9877 18.9194 44.1335 19.284C44.2793 19.6487 44.4977 19.9799 44.7754 20.2576C45.0531 20.5353 45.3843 20.7537 45.749 20.8995C46.1136 21.0454 46.5041 21.1156 46.8967 21.106C47.6843 21.106 48.4396 20.7931 48.9965 20.2362C49.5535 19.6793 49.8663 18.9239 49.8663 18.1363C49.8501 17.3538 49.532 16.6079 48.9786 16.0544C48.4251 15.501 47.6792 15.1829 46.8967 15.1667V15.1667ZM46.8967 19.9394C46.4341 19.9208 45.9972 19.7216 45.6799 19.3845C45.3626 19.0474 45.1902 18.5992 45.1997 18.1363C45.186 17.9049 45.2197 17.6731 45.2987 17.4552C45.3778 17.2372 45.5005 17.0377 45.6594 16.8689C45.8183 16.7001 46.01 16.5655 46.2228 16.4734C46.4355 16.3813 46.6648 16.3336 46.8967 16.3333C47.3593 16.3518 47.7962 16.5511 48.1135 16.8882C48.4308 17.2253 48.6032 17.6735 48.5936 18.1363C48.5853 18.594 48.4069 19.0321 48.0932 19.3654C47.7795 19.6987 47.353 19.9033 46.8967 19.9394ZM40.427 15.1667C39.6394 15.1667 38.8841 15.4795 38.3271 16.0365C37.7702 16.5934 37.4573 17.3487 37.4573 18.1363C37.4477 18.5289 37.518 18.9194 37.6638 19.284C37.8097 19.6487 38.0281 19.9799 38.3058 20.2576C38.5835 20.5353 38.9147 20.7537 39.2793 20.8995C39.644 21.0454 40.0344 21.1156 40.427 21.106C41.2146 21.106 41.97 20.7931 42.5269 20.2362C43.0838 19.6793 43.3967 18.9239 43.3967 18.1363C43.4063 17.7437 43.336 17.3533 43.1902 16.9886C43.0444 16.624 42.826 16.2928 42.5483 16.0151C42.2706 15.7374 41.9394 15.519 41.5747 15.3732C41.2101 15.2273 40.8196 15.1571 40.427 15.1667V15.1667ZM40.427 19.9394C39.9644 19.9208 39.5275 19.7216 39.2102 19.3845C38.8929 19.0474 38.7205 18.5992 38.7301 18.1363C38.7163 17.9049 38.75 17.6731 38.8291 17.4552C38.9081 17.2372 39.0309 17.0377 39.1898 16.8689C39.3486 16.7001 39.5403 16.5655 39.7531 16.4734C39.9659 16.3813 40.1952 16.3336 40.427 16.3333C40.8896 16.3518 41.3265 16.5511 41.6438 16.8882C41.9611 17.2253 42.1335 17.6735 42.124 18.1363C42.1377 18.3678 42.104 18.5996 42.025 18.8175C41.9459 19.0354 41.8232 19.2349 41.6643 19.4038C41.5054 19.5726 41.3137 19.7072 41.1009 19.7993C40.8882 19.8914 40.6589 19.939 40.427 19.9394ZM32.8968 16.1212V17.3939H35.8664C35.8273 17.978 35.6046 18.5349 35.2301 18.9848C34.9334 19.3033 34.5711 19.5535 34.1683 19.7183C33.7654 19.8831 33.3316 19.9585 32.8968 19.9394C32.4575 19.9341 32.0237 19.842 31.6202 19.6683C31.2167 19.4945 30.8517 19.2427 30.546 18.9272C30.2404 18.6116 30.0002 18.2388 29.8394 17.83C29.6785 17.4212 29.6002 16.9846 29.6089 16.5454C29.5912 16.104 29.6634 15.6635 29.821 15.2507C29.9786 14.838 30.2184 14.4615 30.5258 14.1442C30.8332 13.8268 31.2019 13.5752 31.6095 13.4046C32.017 13.234 32.455 13.1479 32.8968 13.1515C33.3131 13.1532 33.7248 13.2385 34.1074 13.4025C34.49 13.5665 34.8357 13.8058 35.124 14.1061L35.9725 13.2576C35.5759 12.844 35.0978 12.5173 34.5683 12.2982C34.0389 12.0791 33.4696 11.9724 32.8968 11.9849C31.6735 12 30.5062 12.4999 29.6512 13.3748C28.7961 14.2497 28.3232 15.4282 28.3362 16.6515C28.3317 17.2517 28.4466 17.8467 28.6742 18.4021C28.9017 18.9574 29.2375 19.462 29.6619 19.8864C30.0863 20.3108 30.5908 20.6465 31.1462 20.8741C31.7015 21.1017 32.2966 21.2166 32.8968 21.2121C33.463 21.2471 34.0302 21.1614 34.5608 20.9606C35.0914 20.7598 35.5733 20.4485 35.9745 20.0474C36.3756 19.6462 36.6869 19.1643 36.8877 18.6337C37.0885 18.1031 37.1742 17.5359 37.1392 16.9697C37.1642 16.7173 37.1278 16.4626 37.0331 16.2273H32.8968V16.1212ZM63.9723 17.0757C63.8027 16.5303 63.4654 16.0522 63.0084 15.7095C62.5514 15.3667 61.998 15.1768 61.4269 15.1667C61.0478 15.1708 60.6734 15.2521 60.3267 15.4055C59.98 15.559 59.6682 15.7814 59.4102 16.0592C59.1522 16.337 58.9535 16.6645 58.8261 17.0216C58.6988 17.3787 58.6454 17.758 58.6693 18.1363C58.6568 18.5208 58.7216 18.9038 58.8597 19.2628C58.9979 19.6218 59.2066 19.9494 59.4736 20.2263C59.7406 20.5031 60.0604 20.7237 60.4141 20.8748C60.7679 21.0259 61.1483 21.1045 61.5329 21.106C62.012 21.1064 62.4841 20.9908 62.9089 20.7692C63.3337 20.5476 63.6985 20.2265 63.9723 19.8333L63.0178 19.1969C62.8782 19.4663 62.6638 19.6896 62.4004 19.8401C62.1371 19.9906 61.8358 20.0619 61.5329 20.0454C61.2298 20.0616 60.9299 19.9767 60.6803 19.8039C60.4307 19.6311 60.2457 19.3803 60.1541 19.0909L64.0784 17.3939L63.9723 17.0757ZM60.0481 18.1363C60.0309 17.9268 60.056 17.7158 60.1219 17.5161C60.1877 17.3164 60.293 17.132 60.4315 16.9737C60.57 16.8155 60.7388 16.6866 60.928 16.5948C61.1172 16.503 61.3229 16.4502 61.5329 16.4394C61.7559 16.4074 61.9831 16.4532 62.1763 16.5691C62.3695 16.685 62.5168 16.8639 62.5935 17.0757L60.0481 18.1363ZM56.8663 21H58.139V12.197H56.8663V21ZM54.7451 15.9091C54.5354 15.7028 54.2868 15.5402 54.0136 15.431C53.7405 15.3217 53.4483 15.2679 53.1542 15.2727C52.7781 15.2864 52.4083 15.3741 52.0661 15.5308C51.7239 15.6875 51.4159 15.9101 51.1598 16.1859C50.9037 16.4617 50.7044 16.7853 50.5735 17.1382C50.4426 17.4911 50.3825 17.8663 50.3966 18.2424C50.3847 18.9975 50.6649 19.7279 51.1787 20.2813C51.6926 20.8347 52.4003 21.1681 53.1542 21.2121C53.4343 21.2302 53.7147 21.182 53.9727 21.0715C54.2307 20.9609 54.459 20.7911 54.639 20.5757V20.8939C54.639 22.0606 54.0027 22.6969 53.0481 22.6969C52.7233 22.6877 52.4085 22.5818 52.1441 22.3929C51.8796 22.204 51.6774 21.9406 51.5633 21.6363L50.3966 22.0606C50.6012 22.575 50.9506 23.0191 51.4023 23.3391C51.8541 23.6591 52.3889 23.8412 52.9421 23.8636C54.4269 23.8636 55.6996 22.909 55.6996 20.7878V15.4848H54.533V15.9091H54.7451ZM53.2603 19.9394C53.0368 19.9272 52.8179 19.8708 52.6165 19.7732C52.4151 19.6757 52.2351 19.539 52.087 19.3712C51.9389 19.2034 51.8257 19.0078 51.754 18.7958C51.6823 18.5837 51.6536 18.3596 51.6694 18.1363C51.6407 17.9105 51.6605 17.6812 51.7274 17.4636C51.7942 17.2461 51.9067 17.0452 52.0571 16.8744C52.2076 16.7037 52.3928 16.5669 52.6002 16.4732C52.8076 16.3795 53.0326 16.3311 53.2603 16.3311C53.4879 16.3311 53.7129 16.3795 53.9203 16.4732C54.1278 16.5669 54.3129 16.7037 54.4634 16.8744C54.6139 17.0452 54.7263 17.2461 54.7931 17.4636C54.86 17.6812 54.8798 17.9105 54.8512 18.1363C54.867 18.3596 54.8382 18.5837 54.7665 18.7958C54.6948 19.0078 54.5816 19.2034 54.4335 19.3712C54.2854 19.539 54.1054 19.6757 53.904 19.7732C53.7026 19.8708 53.4837 19.9272 53.2603 19.9394V19.9394ZM70.0177 12.197H66.942V21H68.2147V17.7121H70.0177C70.7621 17.7226 71.4806 17.4389 72.0168 16.9225C72.5531 16.4061 72.8638 15.6988 72.8813 14.9545C72.8467 14.2161 72.5306 13.5189 71.9981 13.0061C71.4656 12.4933 70.757 12.2038 70.0177 12.197V12.197ZM70.0177 16.4394H68.2147V13.4697H70.0177C70.4115 13.4697 70.7892 13.6261 71.0677 13.9046C71.3461 14.1831 71.5026 14.5607 71.5026 14.9545C71.5026 15.3483 71.3461 15.726 71.0677 16.0045C70.7892 16.2829 70.4115 16.4394 70.0177 16.4394V16.4394ZM77.9722 15.1667C77.4907 15.1411 77.0124 15.2584 76.5973 15.5037C76.1822 15.749 75.8488 16.1114 75.6389 16.5454L76.8055 17.0757C76.9095 16.8613 77.0778 16.6847 77.2869 16.5707C77.4961 16.4566 77.7357 16.4107 77.9722 16.4394C78.3087 16.416 78.6411 16.5248 78.8986 16.7427C79.156 16.9606 79.3184 17.2703 79.351 17.606V17.7121C78.9203 17.5062 78.4496 17.3976 77.9722 17.3939C76.6995 17.3939 75.5328 18.0303 75.5328 19.4091C75.5382 19.6765 75.5985 19.9399 75.7097 20.1832C75.821 20.4264 75.981 20.6442 76.1798 20.8231C76.3787 21.0021 76.6121 21.1383 76.8656 21.2234C77.1192 21.3086 77.3875 21.3408 77.654 21.3181C77.972 21.3397 78.2897 21.2716 78.5709 21.1217C78.8522 20.9717 79.0857 20.7458 79.2449 20.4697V20.4697V21H80.6237V17.606C80.6318 17.2651 80.5671 16.9263 80.4338 16.6123C80.3005 16.2984 80.1017 16.0165 79.8506 15.7856C79.5996 15.5547 79.3022 15.38 78.9783 15.2733C78.6543 15.1665 78.3113 15.1302 77.9722 15.1667V15.1667ZM77.7601 19.9394C77.3358 19.9394 76.8055 19.7272 76.8055 19.1969C76.8055 18.5606 77.548 18.2424 78.1843 18.2424C78.5974 18.2192 79.0069 18.3309 79.351 18.5606C79.2993 18.9448 79.1091 19.2969 78.8162 19.5507C78.5233 19.8046 78.1477 19.9428 77.7601 19.9394V19.9394ZM85.0782 15.3788L83.5934 19.1969L82.1085 15.3788H80.6237L82.957 20.6818L81.6843 23.6515H83.0631L86.563 15.3788H85.0782ZM73.5177 21H74.7904V12.197H73.5177V21Z" fill="black"/>
  <path d="M21.995 12.9396L18.6011 11.0305H18.495L8.63145 5.19719C8.43565 5.04092 8.19257 4.95581 7.94206 4.95581C7.69155 4.95581 7.44847 5.04092 7.25267 5.19719V5.19719C7.02243 5.50091 6.90946 5.87749 6.93449 6.25779V21.7425C6.92122 21.9148 6.94253 22.088 6.99717 22.2519C7.05182 22.4159 7.13868 22.5672 7.25267 22.6971V22.6971C7.44847 22.8533 7.69155 22.9384 7.94206 22.9384C8.19257 22.9384 8.43565 22.8533 8.63145 22.6971L18.7071 16.8638L22.1011 14.9547C22.2963 14.8619 22.4596 14.7133 22.5702 14.5276C22.6808 14.3419 22.7338 14.1275 22.7224 13.9116C22.7111 13.6958 22.6359 13.4882 22.5064 13.3151C22.3769 13.142 22.1989 13.0113 21.995 12.9396Z" fill="black"/>
  <path d="M7.35846 22.9089L7.04028 22.4847L18.7069 10.606L19.1311 10.9241L7.35846 22.9089Z" fill="white"/>
  <path d="M18.7069 17.3938L7.04028 5.409L7.35846 5.09082L19.1311 16.9695L18.7069 17.3938Z" fill="white"/>
  <path d="M89.4267 0.5305C89.8114 0.532 90.1918 0.61063 90.5455 0.76174C90.8992 0.912849 91.219 1.13337 91.486 1.41025C91.753 1.68713 91.9618 2.01475 92.0999 2.37373C92.2381 2.7327 92.3028 3.11574 92.2903 3.50018V24.5C92.2976 25.2716 92.0015 26.0151 91.4659 26.5706C90.9303 27.126 90.198 27.4489 89.4267 27.4697H3.51824C3.1336 27.4682 2.75317 27.3896 2.39946 27.2385C2.04574 27.0874 1.72593 26.8668 1.45894 26.59C1.19194 26.3131 0.983195 25.9855 0.845043 25.6265C0.706892 25.2675 0.642143 24.8845 0.654627 24.5V3.50018C0.647394 2.72861 0.943448 1.98507 1.47904 1.42964C2.01463 0.874207 2.74693 0.55132 3.51824 0.5305H89.4267ZM89.4267 0.000201148H3.51824C3.05724 -0.00476776 2.59988 0.0823685 2.173 0.256499C1.74612 0.43063 1.35831 0.688249 1.03231 1.01425C0.706315 1.34024 0.448696 1.72806 0.274566 2.15494C0.100435 2.58182 0.0132986 3.03917 0.0182676 3.50018V24.5C0.0207774 25.4093 0.375891 26.2822 1.00889 26.9349C1.64188 27.5877 2.50341 27.9695 3.41218 28H89.3207C89.7736 27.9939 90.2208 27.8985 90.6368 27.7191C91.0527 27.5398 91.4292 27.2801 91.7445 26.9549C92.0598 26.6297 92.3079 26.2454 92.4743 25.8242C92.6408 25.4029 92.7224 24.9529 92.7146 24.5V3.50018C92.7436 3.0509 92.6801 2.60045 92.5279 2.17673C92.3757 1.75302 92.1382 1.36507 91.8299 1.03694C91.5217 0.708799 91.1493 0.447466 90.7359 0.269132C90.3225 0.0907976 89.8769 -0.000736859 89.4267 0.000201148V0.000201148Z" fill="black"/>
</svg>
